<?xml version="1.0" standalone="no"?>
<!DOCTYPE svg PUBLIC "-//W3C//DTD SVG 20010904//EN"
 "http://www.w3.org/TR/2001/REC-SVG-20010904/DTD/svg10.dtd">
<svg version="1.0" xmlns="http://www.w3.org/2000/svg"
 width="203.000000pt" height="203.000000pt" viewBox="0 0 203.000000 203.000000"
 preserveAspectRatio="xMidYMid meet">
<metadata>
Created by potrace 1.11, written by Peter Selinger 2001-2013
</metadata>
<g transform="translate(0.000000,203.000000) scale(0.100000,-0.100000)"
fill="#000000" stroke="none">
<path d="M298 1748 c-4 -11 -3 -659 1 -680 0 -5 102 -8 226 -8 l225 0 0 70 0
70 -150 0 -149 0 0 238 c1 130 1 256 0 280 l-1 42 -74 0 c-50 0 -75 -4 -78
-12z"/>
<path d="M875 1218 c-68 -39 -60 -135 13 -159 74 -24 133 45 102 120 -17 42
-76 61 -115 39z"/>
<path d="M835 733 c1 -190 4 -237 19 -285 38 -119 138 -190 269 -191 89 -1
117 5 172 37 72 43 120 113 133 196 3 19 6 132 6 250 l0 215 -77 3 -77 3 -1
-203 c0 -112 -2 -217 -4 -235 -6 -43 -40 -97 -72 -114 -38 -20 -114 -17 -146
7 -56 41 -62 69 -64 309 -1 121 -2 223 -2 228 -1 4 -36 7 -79 7 l-78 0 1 -227z"/>
<path d="M1615 418 c-42 -24 -58 -74 -38 -116 27 -56 99 -65 140 -18 23 27 31
80 15 101 -26 36 -83 52 -117 33z"/>
</g>
</svg>
